#N canvas 17 288 170 248 10;
#X obj 0 84 clip~ -0.9 0.9;
#X obj 0 105 hip~ 25;
#X obj 0 63 hip~ 25;
#X obj 0 21 bp~ 30 5;
#X obj 0 42 *~ 100;
#X obj -2 170 *~ 0.6;
#X obj -2 194 dac~;
#X obj 0 0 noise~;
#X connect 0 0 1 0;
#X connect 1 0 5 0;
#X connect 2 0 0 0;
#X connect 3 0 4 0;
#X connect 4 0 2 0;
#X connect 5 0 6 0;
#X connect 5 0 6 1;
#X connect 7 0 3 0;
