#N canvas 119 343 1165 581 10;
#X obj 0 303 *~;
#X obj 53 52 env~;
#X obj 53 28 lop~ 1;
#X msg 104 118 bang;
#X obj 53 75 moses 50;
#X obj 104 96 moses 51;
#X obj 104 141 random 30;
#X obj 173 409 dac~;
#X obj 41 0 noise~;
#X obj 0 224 line~;
#X msg 0 203 1 \, 0 \$1;
#X obj 0 251 *~;
#X obj 73 223 + 1500;
#X obj 73 201 * 500;
#X obj 0 278 *~;
#X obj 104 163 t f f;
#X obj 41 247 bp~ 2000 1;
#X floatatom 209 41 5 0 0 0 - - - 0;
#X msg 484 274 print;
#X msg 363 173 bang;
#X msg 465 220 start;
#X msg 472 248 stop;
#X obj 363 214 del 1000;
#X text 509 222 start streaming audio;
#X text 511 248 stop streaming audio;
#X obj 457 341 writesf~ 2, f 15;
#X msg 457 192 open -bytes 4 /tmp/foo.wav;
#X msg 445 167 open -bytes 3 /tmp/foo.wav;
#X text 554 141 create a new 16-bit integer soundfile;
#X text 575 335 The creation argument is the number of channels (1
to 64)., f 29;
#X msg 425 141 open foo.wav;
#X obj 477 462;
#X connect 0 0 7 0;
#X connect 0 0 7 1;
#X connect 0 0 25 0;
#X connect 1 0 4 0;
#X connect 2 0 1 0;
#X connect 3 0 6 0;
#X connect 4 1 5 0;
#X connect 5 0 3 0;
#X connect 6 0 15 0;
#X connect 8 0 2 0;
#X connect 8 0 16 0;
#X connect 9 0 11 0;
#X connect 9 0 11 1;
#X connect 10 0 9 0;
#X connect 11 0 14 0;
#X connect 11 0 14 1;
#X connect 12 0 16 1;
#X connect 13 0 12 0;
#X connect 14 0 0 0;
#X connect 15 0 10 0;
#X connect 15 1 13 0;
#X connect 16 0 0 1;
#X connect 17 0 6 1;
#X connect 18 0 25 0;
#X connect 19 0 20 0;
#X connect 19 0 22 0;
#X connect 20 0 25 0;
#X connect 21 0 25 0;
#X connect 22 0 21 0;
#X connect 26 0 25 0;
#X connect 27 0 25 0;
#X connect 30 0 25 0;
