#N canvas 1243 314 417 613 10;
#X obj 172 25 loadbang;
#X msg 171 58 \; pd dsp 1;
#X floatatom 278 236 5 0 0 0 - - -;
#X floatatom 243 283 5 0 0 0 - - -;
#X floatatom 243 334 5 0 0 0 - - -;
#X msg 243 236 100;
#X obj 243 188 loadbang;
#X obj 246 262 hsl 128 15 0 127 0 0 empty empty empty -2 -8 0 10 -262144
-1 -1 10000 1;
#X obj 243 305 dbtorms;
#X obj 278 211 r niveau;
#X obj 243 363 s niveauDB;
#X text 229 162 Positionnement du niveau;
#X obj 107 2176 *~;
#X obj 164 582 dac~;
#X obj 20 495 rev1~;
#X floatatom 149 500 5 0 0 0 - - -;
#X obj 119 445 loadbang;
#X msg 120 470 25;
#X obj 171 544 *~ 1;
#X obj 26 93 oscparse;
#X obj 25 71 netreceive -u -b;
#X msg 25 44 listen 5000;
#X obj 25 11 loadbang;
#X obj 25 123 route list;
#N canvas 260 260 868 631 counter4 0;
#X obj 123 247 mod 4;
#X floatatom 113 178 5 0 0 0 - - -;
#X obj 68 329 print;
#X obj 124 315 select 0 1 2 3;
#X obj 115 364 bng 15 250 50 0 empty empty empty 17 7 0 10 -262144
-1 -1;
#X obj 150 373 bng 15 250 50 0 empty empty empty 17 7 0 10 -262144
-1 -1;
#X obj 184 374 bng 15 250 50 0 empty empty empty 17 7 0 10 -262144
-1 -1;
#X obj 217 376 bng 15 250 50 0 empty empty empty 17 7 0 10 -262144
-1 -1;
#X obj 101 96 float;
#X obj 164 94 +;
#X obj 106 53 bng 15 250 50 0 empty empty empty 17 7 0 10 -262144 -1
-1;
#X obj 78 128 print;
#X msg 173 54 1;
#X obj 178 19 loadbang;
#X obj 87 490 spigot;
#X msg 98 418 1;
#X msg 127 440 0;
#X obj 153 491 spigot;
#X obj 224 492 spigot;
#X obj 292 494 spigot;
#X msg 156 416 1;
#X msg 185 438 0;
#X msg 223 412 1;
#X msg 252 434 0;
#X msg 288 414 1;
#X msg 317 436 0;
#X obj 309 181 inlet;
#X obj 74 549 outlet;
#X obj 155 549 outlet;
#X obj 226 548 outlet;
#X obj 296 547 outlet;
#X obj 251 255 t l b;
#X connect 0 0 2 0;
#X connect 0 0 3 0;
#X connect 1 0 0 0;
#X connect 3 0 4 0;
#X connect 3 1 5 0;
#X connect 3 2 6 0;
#X connect 3 3 7 0;
#X connect 4 0 15 0;
#X connect 4 0 16 0;
#X connect 5 0 20 0;
#X connect 5 0 21 0;
#X connect 6 0 22 0;
#X connect 6 0 23 0;
#X connect 7 0 24 0;
#X connect 7 0 25 0;
#X connect 8 0 9 0;
#X connect 8 0 11 0;
#X connect 8 0 1 0;
#X connect 9 0 8 1;
#X connect 10 0 8 0;
#X connect 12 0 9 1;
#X connect 13 0 12 0;
#X connect 14 0 27 0;
#X connect 15 0 14 1;
#X connect 16 0 17 1;
#X connect 16 0 18 1;
#X connect 16 0 19 1;
#X connect 17 0 28 0;
#X connect 18 0 29 0;
#X connect 19 0 30 0;
#X connect 20 0 17 1;
#X connect 21 0 14 1;
#X connect 21 0 18 1;
#X connect 22 0 18 1;
#X connect 23 0 14 1;
#X connect 23 0 17 1;
#X connect 23 0 19 1;
#X connect 24 0 19 1;
#X connect 25 0 18 1;
#X connect 25 0 17 1;
#X connect 25 0 14 1;
#X connect 26 0 31 0;
#X connect 31 0 19 0;
#X connect 31 0 18 0;
#X connect 31 0 17 0;
#X connect 31 0 14 0;
#X connect 31 1 10 0;
#X restore 26 294 pd counter4;
#N canvas 388 45 1920 1037 readsound 0;
#X obj 156 5 inlet;
#X msg -10 704 0;
#X obj -49 591 print message;
#X obj -60 756 readsf~ 1 1e+06, f 20;
#X obj 319 626 del;
#N canvas 182 182 963 555 diff 0;
#X obj 128 26 inlet;
#X obj 132 88 route 1 2 3 4 5 6 7 8 9 10 11 12 13 14 15 16 17 18 19
20;
#X obj 294 360 outlet;
#X obj 86 356 outlet;
#N canvas 1188 145 450 597 slice01 0;
#X obj 202 35 inlet;
#X obj 142 117 tabread slices01;
#X floatatom 148 166 5 0 0 0 - - -;
#X obj 204 182 + 1;
#X obj 200 216 tabread slices01;
#X floatatom 242 262 5 0 0 0 - - -;
#X obj 181 323 - 0;
#X obj 186 350 * -1;
#X obj 235 77 t i i;
#X obj 35 208 s sortie01;
#X obj 209 462 s sortie02;
#X connect 0 0 8 0;
#X connect 1 0 2 0;
#X connect 1 0 9 0;
#X connect 2 0 6 0;
#X connect 3 0 4 0;
#X connect 4 0 5 0;
#X connect 4 0 6 1;
#X connect 6 0 7 0;
#X connect 7 0 10 0;
#X connect 8 0 1 0;
#X connect 8 1 3 0;
#X restore 132 144 pd slice01;
#X obj 109 300 r sortie01;
#X obj 285 304 r sortie02;
#N canvas 1188 145 450 597 slice02 0;
#X obj 202 35 inlet;
#X floatatom 148 166 5 0 0 0 - - -;
#X obj 204 182 + 1;
#X floatatom 242 262 5 0 0 0 - - -;
#X obj 181 323 - 0;
#X obj 186 350 * -1;
#X obj 235 77 t i i;
#X obj 35 208 s sortie01;
#X obj 209 462 s sortie02;
#X obj 142 117 tabread slices02;
#X obj 200 216 tabread slices02;
#X connect 0 0 6 0;
#X connect 1 0 4 0;
#X connect 2 0 10 0;
#X connect 4 0 5 0;
#X connect 5 0 8 0;
#X connect 6 0 9 0;
#X connect 6 1 2 0;
#X connect 9 0 1 0;
#X connect 9 0 7 0;
#X connect 10 0 3 0;
#X connect 10 0 4 1;
#X restore 149 195 pd slice02;
#N canvas 1188 145 450 597 slice03 0;
#X obj 202 35 inlet;
#X floatatom 148 166 5 0 0 0 - - -;
#X obj 204 182 + 1;
#X floatatom 242 262 5 0 0 0 - - -;
#X obj 181 323 - 0;
#X obj 186 350 * -1;
#X obj 235 77 t i i;
#X obj 35 208 s sortie01;
#X obj 209 462 s sortie02;
#X obj 142 117 tabread slices03;
#X obj 200 216 tabread slices03;
#X connect 0 0 6 0;
#X connect 1 0 4 0;
#X connect 2 0 10 0;
#X connect 4 0 5 0;
#X connect 5 0 8 0;
#X connect 6 0 9 0;
#X connect 6 1 2 0;
#X connect 9 0 1 0;
#X connect 9 0 7 0;
#X connect 10 0 3 0;
#X connect 10 0 4 1;
#X restore 161 247 pd slice03;
#N canvas 1188 145 450 597 slice04 0;
#X obj 202 35 inlet;
#X floatatom 148 166 5 0 0 0 - - -;
#X obj 204 182 + 1;
#X floatatom 242 262 5 0 0 0 - - -;
#X obj 181 323 - 0;
#X obj 186 350 * -1;
#X obj 235 77 t i i;
#X obj 35 208 s sortie01;
#X obj 209 462 s sortie02;
#X obj 142 117 tabread slices04;
#X obj 200 216 tabread slices04;
#X connect 0 0 6 0;
#X connect 1 0 4 0;
#X connect 2 0 10 0;
#X connect 4 0 5 0;
#X connect 5 0 8 0;
#X connect 6 0 9 0;
#X connect 6 1 2 0;
#X connect 9 0 1 0;
#X connect 9 0 7 0;
#X connect 10 0 3 0;
#X connect 10 0 4 1;
#X restore 182 170 pd slice04;
#N canvas 1188 145 450 597 slice05 0;
#X obj 202 35 inlet;
#X floatatom 148 166 5 0 0 0 - - -;
#X obj 204 182 + 1;
#X floatatom 242 262 5 0 0 0 - - -;
#X obj 181 323 - 0;
#X obj 186 350 * -1;
#X obj 235 77 t i i;
#X obj 35 208 s sortie01;
#X obj 209 462 s sortie02;
#X obj 142 117 tabread slices05;
#X obj 200 216 tabread slices05;
#X connect 0 0 6 0;
#X connect 1 0 4 0;
#X connect 2 0 10 0;
#X connect 4 0 5 0;
#X connect 5 0 8 0;
#X connect 6 0 9 0;
#X connect 6 1 2 0;
#X connect 9 0 1 0;
#X connect 9 0 7 0;
#X connect 10 0 3 0;
#X connect 10 0 4 1;
#X restore 199 221 pd slice05;
#N canvas 1188 145 450 597 slice06 0;
#X obj 202 35 inlet;
#X floatatom 148 166 5 0 0 0 - - -;
#X obj 204 182 + 1;
#X floatatom 242 262 5 0 0 0 - - -;
#X obj 181 323 - 0;
#X obj 186 350 * -1;
#X obj 235 77 t i i;
#X obj 35 208 s sortie01;
#X obj 209 462 s sortie02;
#X obj 142 117 tabread slices06;
#X obj 200 216 tabread slices06;
#X connect 0 0 6 0;
#X connect 1 0 4 0;
#X connect 2 0 10 0;
#X connect 4 0 5 0;
#X connect 5 0 8 0;
#X connect 6 0 9 0;
#X connect 6 1 2 0;
#X connect 9 0 1 0;
#X connect 9 0 7 0;
#X connect 10 0 3 0;
#X connect 10 0 4 1;
#X restore 211 273 pd slice06;
#X connect 0 0 1 0;
#X connect 1 0 4 0;
#X connect 1 1 7 0;
#X connect 1 2 8 0;
#X connect 1 3 9 0;
#X connect 1 4 10 0;
#X connect 1 5 11 0;
#X connect 5 0 3 0;
#X connect 6 0 2 0;
#X restore 392 369 pd diff;
#X obj 313 454 * 44.1;
#X obj 146 169 spigot;
#X obj 157 64 t b l;
#X msg 180 132 0;
#X msg 366 716 \; gate 1;
#X obj 219 145 r gate;
#X msg -77 547 open ./sounds/son\$1.wav \$2 \, 1;
#X obj 484 831 outlet~;
#X obj 641 650 line~;
#X obj 490 797 *~;
#X msg 641 619 1;
#X obj 651 592 loadbang;
#X obj 619 495 del;
#X msg 625 538 0 50;
#X obj 597 420 - 50;
#X obj 145 218 t l l b;
#X msg 248 235 \; vol 1;
#X obj 572 603 r vol;
#X obj 366 677 loadbang;
#X obj 156 476 pack f f;
#X obj 159 406 unpack f f;
#X obj 600 453 t b f;
#X obj 332 554 t b f;
#X connect 0 0 8 0;
#X connect 1 0 3 0;
#X connect 3 0 15 0;
#X connect 4 0 1 0;
#X connect 4 0 10 0;
#X connect 5 0 6 0;
#X connect 5 1 20 0;
#X connect 5 1 28 0;
#X connect 6 0 25 1;
#X connect 7 0 21 0;
#X connect 8 0 9 0;
#X connect 8 1 7 0;
#X connect 9 0 7 1;
#X connect 11 0 7 1;
#X connect 12 0 2 0;
#X connect 12 0 3 0;
#X connect 14 0 15 1;
#X connect 15 0 13 0;
#X connect 16 0 14 0;
#X connect 17 0 16 0;
#X connect 18 0 19 0;
#X connect 19 0 14 0;
#X connect 20 0 27 0;
#X connect 21 0 26 0;
#X connect 21 1 5 0;
#X connect 21 2 22 0;
#X connect 23 0 14 0;
#X connect 24 0 10 0;
#X connect 25 0 12 0;
#X connect 26 0 25 0;
#X connect 27 0 18 0;
#X connect 27 1 18 1;
#X connect 28 0 4 0;
#X connect 28 1 4 1;
#X restore 48 358 pd readsound;
#N canvas 388 45 1920 1037 readsound 0;
#X obj 156 5 inlet;
#X msg -10 704 0;
#X obj -49 591 print message;
#X obj -60 756 readsf~ 1 1e+06, f 20;
#X obj 319 626 del;
#N canvas 182 182 963 555 diff 0;
#X obj 128 26 inlet;
#X obj 132 88 route 1 2 3 4 5 6 7 8 9 10 11 12 13 14 15 16 17 18 19
20;
#X obj 294 360 outlet;
#X obj 86 356 outlet;
#N canvas 1188 145 450 597 slice01 0;
#X obj 202 35 inlet;
#X obj 142 117 tabread slices01;
#X floatatom 148 166 5 0 0 0 - - -;
#X obj 204 182 + 1;
#X obj 200 216 tabread slices01;
#X floatatom 242 262 5 0 0 0 - - -;
#X obj 181 323 - 0;
#X obj 186 350 * -1;
#X obj 235 77 t i i;
#X obj 35 208 s sortie01;
#X obj 209 462 s sortie02;
#X connect 0 0 8 0;
#X connect 1 0 2 0;
#X connect 1 0 9 0;
#X connect 2 0 6 0;
#X connect 3 0 4 0;
#X connect 4 0 5 0;
#X connect 4 0 6 1;
#X connect 6 0 7 0;
#X connect 7 0 10 0;
#X connect 8 0 1 0;
#X connect 8 1 3 0;
#X restore 132 144 pd slice01;
#X obj 109 300 r sortie01;
#X obj 285 304 r sortie02;
#N canvas 1188 145 450 597 slice02 0;
#X obj 202 35 inlet;
#X floatatom 148 166 5 0 0 0 - - -;
#X obj 204 182 + 1;
#X floatatom 242 262 5 0 0 0 - - -;
#X obj 181 323 - 0;
#X obj 186 350 * -1;
#X obj 235 77 t i i;
#X obj 35 208 s sortie01;
#X obj 209 462 s sortie02;
#X obj 142 117 tabread slices02;
#X obj 200 216 tabread slices02;
#X connect 0 0 6 0;
#X connect 1 0 4 0;
#X connect 2 0 10 0;
#X connect 4 0 5 0;
#X connect 5 0 8 0;
#X connect 6 0 9 0;
#X connect 6 1 2 0;
#X connect 9 0 1 0;
#X connect 9 0 7 0;
#X connect 10 0 3 0;
#X connect 10 0 4 1;
#X restore 149 195 pd slice02;
#N canvas 1188 145 450 597 slice03 0;
#X obj 202 35 inlet;
#X floatatom 148 166 5 0 0 0 - - -;
#X obj 204 182 + 1;
#X floatatom 242 262 5 0 0 0 - - -;
#X obj 181 323 - 0;
#X obj 186 350 * -1;
#X obj 235 77 t i i;
#X obj 35 208 s sortie01;
#X obj 209 462 s sortie02;
#X obj 142 117 tabread slices03;
#X obj 200 216 tabread slices03;
#X connect 0 0 6 0;
#X connect 1 0 4 0;
#X connect 2 0 10 0;
#X connect 4 0 5 0;
#X connect 5 0 8 0;
#X connect 6 0 9 0;
#X connect 6 1 2 0;
#X connect 9 0 1 0;
#X connect 9 0 7 0;
#X connect 10 0 3 0;
#X connect 10 0 4 1;
#X restore 161 247 pd slice03;
#N canvas 1188 145 450 597 slice04 0;
#X obj 202 35 inlet;
#X floatatom 148 166 5 0 0 0 - - -;
#X obj 204 182 + 1;
#X floatatom 242 262 5 0 0 0 - - -;
#X obj 181 323 - 0;
#X obj 186 350 * -1;
#X obj 235 77 t i i;
#X obj 35 208 s sortie01;
#X obj 209 462 s sortie02;
#X obj 142 117 tabread slices04;
#X obj 200 216 tabread slices04;
#X connect 0 0 6 0;
#X connect 1 0 4 0;
#X connect 2 0 10 0;
#X connect 4 0 5 0;
#X connect 5 0 8 0;
#X connect 6 0 9 0;
#X connect 6 1 2 0;
#X connect 9 0 1 0;
#X connect 9 0 7 0;
#X connect 10 0 3 0;
#X connect 10 0 4 1;
#X restore 182 170 pd slice04;
#N canvas 1188 145 450 597 slice05 0;
#X obj 202 35 inlet;
#X floatatom 148 166 5 0 0 0 - - -;
#X obj 204 182 + 1;
#X floatatom 242 262 5 0 0 0 - - -;
#X obj 181 323 - 0;
#X obj 186 350 * -1;
#X obj 235 77 t i i;
#X obj 35 208 s sortie01;
#X obj 209 462 s sortie02;
#X obj 142 117 tabread slices05;
#X obj 200 216 tabread slices05;
#X connect 0 0 6 0;
#X connect 1 0 4 0;
#X connect 2 0 10 0;
#X connect 4 0 5 0;
#X connect 5 0 8 0;
#X connect 6 0 9 0;
#X connect 6 1 2 0;
#X connect 9 0 1 0;
#X connect 9 0 7 0;
#X connect 10 0 3 0;
#X connect 10 0 4 1;
#X restore 199 221 pd slice05;
#N canvas 1188 145 450 597 slice06 0;
#X obj 202 35 inlet;
#X floatatom 148 166 5 0 0 0 - - -;
#X obj 204 182 + 1;
#X floatatom 242 262 5 0 0 0 - - -;
#X obj 181 323 - 0;
#X obj 186 350 * -1;
#X obj 235 77 t i i;
#X obj 35 208 s sortie01;
#X obj 209 462 s sortie02;
#X obj 142 117 tabread slices06;
#X obj 200 216 tabread slices06;
#X connect 0 0 6 0;
#X connect 1 0 4 0;
#X connect 2 0 10 0;
#X connect 4 0 5 0;
#X connect 5 0 8 0;
#X connect 6 0 9 0;
#X connect 6 1 2 0;
#X connect 9 0 1 0;
#X connect 9 0 7 0;
#X connect 10 0 3 0;
#X connect 10 0 4 1;
#X restore 211 273 pd slice06;
#X connect 0 0 1 0;
#X connect 1 0 4 0;
#X connect 1 1 7 0;
#X connect 1 2 8 0;
#X connect 1 3 9 0;
#X connect 1 4 10 0;
#X connect 1 5 11 0;
#X connect 5 0 3 0;
#X connect 6 0 2 0;
#X restore 392 369 pd diff;
#X obj 313 454 * 44.1;
#X obj 146 169 spigot;
#X obj 157 64 t b l;
#X msg 180 132 0;
#X msg 366 716 \; gate 1;
#X obj 219 145 r gate;
#X msg -77 547 open ./sounds/son\$1.wav \$2 \, 1;
#X obj 484 831 outlet~;
#X obj 641 650 line~;
#X obj 490 797 *~;
#X msg 641 619 1;
#X obj 651 592 loadbang;
#X obj 619 495 del;
#X msg 625 538 0 50;
#X obj 597 420 - 50;
#X obj 145 218 t l l b;
#X msg 248 235 \; vol 1;
#X obj 572 603 r vol;
#X obj 366 677 loadbang;
#X obj 156 476 pack f f;
#X obj 159 406 unpack f f;
#X obj 600 453 t b f;
#X obj 332 554 t b f;
#X connect 0 0 8 0;
#X connect 1 0 3 0;
#X connect 3 0 15 0;
#X connect 4 0 1 0;
#X connect 4 0 10 0;
#X connect 5 0 6 0;
#X connect 5 1 20 0;
#X connect 5 1 28 0;
#X connect 6 0 25 1;
#X connect 7 0 21 0;
#X connect 8 0 9 0;
#X connect 8 1 7 0;
#X connect 9 0 7 1;
#X connect 11 0 7 1;
#X connect 12 0 2 0;
#X connect 12 0 3 0;
#X connect 14 0 15 1;
#X connect 15 0 13 0;
#X connect 16 0 14 0;
#X connect 17 0 16 0;
#X connect 18 0 19 0;
#X connect 19 0 14 0;
#X connect 20 0 27 0;
#X connect 21 0 26 0;
#X connect 21 1 5 0;
#X connect 21 2 22 0;
#X connect 23 0 14 0;
#X connect 24 0 10 0;
#X connect 25 0 12 0;
#X connect 26 0 25 0;
#X connect 27 0 18 0;
#X connect 27 1 18 1;
#X connect 28 0 4 0;
#X connect 28 1 4 1;
#X restore 81 384 pd readsound;
#N canvas 388 45 1920 1037 readsound 0;
#X obj 156 5 inlet;
#X msg -10 704 0;
#X obj -49 591 print message;
#X obj -60 756 readsf~ 1 1e+06, f 20;
#X obj 319 626 del;
#N canvas 182 182 963 555 diff 0;
#X obj 128 26 inlet;
#X obj 132 88 route 1 2 3 4 5 6 7 8 9 10 11 12 13 14 15 16 17 18 19
20;
#X obj 294 360 outlet;
#X obj 86 356 outlet;
#N canvas 1188 145 450 597 slice01 0;
#X obj 202 35 inlet;
#X obj 142 117 tabread slices01;
#X floatatom 148 166 5 0 0 0 - - -;
#X obj 204 182 + 1;
#X obj 200 216 tabread slices01;
#X floatatom 242 262 5 0 0 0 - - -;
#X obj 181 323 - 0;
#X obj 186 350 * -1;
#X obj 235 77 t i i;
#X obj 35 208 s sortie01;
#X obj 209 462 s sortie02;
#X connect 0 0 8 0;
#X connect 1 0 2 0;
#X connect 1 0 9 0;
#X connect 2 0 6 0;
#X connect 3 0 4 0;
#X connect 4 0 5 0;
#X connect 4 0 6 1;
#X connect 6 0 7 0;
#X connect 7 0 10 0;
#X connect 8 0 1 0;
#X connect 8 1 3 0;
#X restore 132 144 pd slice01;
#X obj 109 300 r sortie01;
#X obj 285 304 r sortie02;
#N canvas 1188 145 450 597 slice02 0;
#X obj 202 35 inlet;
#X floatatom 148 166 5 0 0 0 - - -;
#X obj 204 182 + 1;
#X floatatom 242 262 5 0 0 0 - - -;
#X obj 181 323 - 0;
#X obj 186 350 * -1;
#X obj 235 77 t i i;
#X obj 35 208 s sortie01;
#X obj 209 462 s sortie02;
#X obj 142 117 tabread slices02;
#X obj 200 216 tabread slices02;
#X connect 0 0 6 0;
#X connect 1 0 4 0;
#X connect 2 0 10 0;
#X connect 4 0 5 0;
#X connect 5 0 8 0;
#X connect 6 0 9 0;
#X connect 6 1 2 0;
#X connect 9 0 1 0;
#X connect 9 0 7 0;
#X connect 10 0 3 0;
#X connect 10 0 4 1;
#X restore 149 195 pd slice02;
#N canvas 1188 145 450 597 slice03 0;
#X obj 202 35 inlet;
#X floatatom 148 166 5 0 0 0 - - -;
#X obj 204 182 + 1;
#X floatatom 242 262 5 0 0 0 - - -;
#X obj 181 323 - 0;
#X obj 186 350 * -1;
#X obj 235 77 t i i;
#X obj 35 208 s sortie01;
#X obj 209 462 s sortie02;
#X obj 142 117 tabread slices03;
#X obj 200 216 tabread slices03;
#X connect 0 0 6 0;
#X connect 1 0 4 0;
#X connect 2 0 10 0;
#X connect 4 0 5 0;
#X connect 5 0 8 0;
#X connect 6 0 9 0;
#X connect 6 1 2 0;
#X connect 9 0 1 0;
#X connect 9 0 7 0;
#X connect 10 0 3 0;
#X connect 10 0 4 1;
#X restore 161 247 pd slice03;
#N canvas 1188 145 450 597 slice04 0;
#X obj 202 35 inlet;
#X floatatom 148 166 5 0 0 0 - - -;
#X obj 204 182 + 1;
#X floatatom 242 262 5 0 0 0 - - -;
#X obj 181 323 - 0;
#X obj 186 350 * -1;
#X obj 235 77 t i i;
#X obj 35 208 s sortie01;
#X obj 209 462 s sortie02;
#X obj 142 117 tabread slices04;
#X obj 200 216 tabread slices04;
#X connect 0 0 6 0;
#X connect 1 0 4 0;
#X connect 2 0 10 0;
#X connect 4 0 5 0;
#X connect 5 0 8 0;
#X connect 6 0 9 0;
#X connect 6 1 2 0;
#X connect 9 0 1 0;
#X connect 9 0 7 0;
#X connect 10 0 3 0;
#X connect 10 0 4 1;
#X restore 182 170 pd slice04;
#N canvas 1188 145 450 597 slice05 0;
#X obj 202 35 inlet;
#X floatatom 148 166 5 0 0 0 - - -;
#X obj 204 182 + 1;
#X floatatom 242 262 5 0 0 0 - - -;
#X obj 181 323 - 0;
#X obj 186 350 * -1;
#X obj 235 77 t i i;
#X obj 35 208 s sortie01;
#X obj 209 462 s sortie02;
#X obj 142 117 tabread slices05;
#X obj 200 216 tabread slices05;
#X connect 0 0 6 0;
#X connect 1 0 4 0;
#X connect 2 0 10 0;
#X connect 4 0 5 0;
#X connect 5 0 8 0;
#X connect 6 0 9 0;
#X connect 6 1 2 0;
#X connect 9 0 1 0;
#X connect 9 0 7 0;
#X connect 10 0 3 0;
#X connect 10 0 4 1;
#X restore 199 221 pd slice05;
#N canvas 1188 145 450 597 slice06 0;
#X obj 202 35 inlet;
#X floatatom 148 166 5 0 0 0 - - -;
#X obj 204 182 + 1;
#X floatatom 242 262 5 0 0 0 - - -;
#X obj 181 323 - 0;
#X obj 186 350 * -1;
#X obj 235 77 t i i;
#X obj 35 208 s sortie01;
#X obj 209 462 s sortie02;
#X obj 142 117 tabread slices06;
#X obj 200 216 tabread slices06;
#X connect 0 0 6 0;
#X connect 1 0 4 0;
#X connect 2 0 10 0;
#X connect 4 0 5 0;
#X connect 5 0 8 0;
#X connect 6 0 9 0;
#X connect 6 1 2 0;
#X connect 9 0 1 0;
#X connect 9 0 7 0;
#X connect 10 0 3 0;
#X connect 10 0 4 1;
#X restore 211 273 pd slice06;
#X connect 0 0 1 0;
#X connect 1 0 4 0;
#X connect 1 1 7 0;
#X connect 1 2 8 0;
#X connect 1 3 9 0;
#X connect 1 4 10 0;
#X connect 1 5 11 0;
#X connect 5 0 3 0;
#X connect 6 0 2 0;
#X restore 392 369 pd diff;
#X obj 313 454 * 44.1;
#X obj 146 169 spigot;
#X obj 157 64 t b l;
#X msg 180 132 0;
#X msg 366 716 \; gate 1;
#X obj 219 145 r gate;
#X msg -77 547 open ./sounds/son\$1.wav \$2 \, 1;
#X obj 484 831 outlet~;
#X obj 641 650 line~;
#X obj 490 797 *~;
#X msg 641 619 1;
#X obj 651 592 loadbang;
#X obj 619 495 del;
#X msg 625 538 0 50;
#X obj 597 420 - 50;
#X obj 145 218 t l l b;
#X msg 248 235 \; vol 1;
#X obj 572 603 r vol;
#X obj 366 677 loadbang;
#X obj 156 476 pack f f;
#X obj 159 406 unpack f f;
#X obj 600 453 t b f;
#X obj 332 554 t b f;
#X connect 0 0 8 0;
#X connect 1 0 3 0;
#X connect 3 0 15 0;
#X connect 4 0 1 0;
#X connect 4 0 10 0;
#X connect 5 0 6 0;
#X connect 5 1 20 0;
#X connect 5 1 28 0;
#X connect 6 0 25 1;
#X connect 7 0 21 0;
#X connect 8 0 9 0;
#X connect 8 1 7 0;
#X connect 9 0 7 1;
#X connect 11 0 7 1;
#X connect 12 0 2 0;
#X connect 12 0 3 0;
#X connect 14 0 15 1;
#X connect 15 0 13 0;
#X connect 16 0 14 0;
#X connect 17 0 16 0;
#X connect 18 0 19 0;
#X connect 19 0 14 0;
#X connect 20 0 27 0;
#X connect 21 0 26 0;
#X connect 21 1 5 0;
#X connect 21 2 22 0;
#X connect 23 0 14 0;
#X connect 24 0 10 0;
#X connect 25 0 12 0;
#X connect 26 0 25 0;
#X connect 27 0 18 0;
#X connect 27 1 18 1;
#X connect 28 0 4 0;
#X connect 28 1 4 1;
#X restore 124 408 pd readsound;
#N canvas 1001 120 882 853 slicing 0;
#X msg 208 62 \; slices01 read ./onsets/son1.txt;
#X msg 257 147 \; slices03 read ./onsets/son3.txt;
#X obj 221 22 loadbang;
#X msg 232 103 \; slices02 read ./onsets/son2.txt;
#X obj 38 27 table slices01 258;
#X obj 37 48 table slices02 258;
#X obj 38 70 table slices03 258;
#X obj 38 92 table slices04 258;
#X obj 37 113 table slices05 258;
#X obj 38 135 table slices06 258;
#X msg 277 198 \; slices04 read ./onsets/son4.txt;
#X msg 286 239 \; slices05 read ./onsets/son5.txt;
#X obj 34 287 table slices20 258;
#X obj 33 308 table slices21 258;
#X obj 34 330 table slices22 258;
#X msg 182 288 \; slices20 read ./onsets/son20.txt;
#X msg 202 339 \; slices21 read ./onsets/son21.txt;
#X msg 211 380 \; slices22 read ./onsets/son22.txt;
#X text 535 73 jonathan;
#X text 519 365 matheo;
#X text 529 532 amelie...;
#X connect 2 0 0 0;
#X connect 2 0 3 0;
#X connect 2 0 1 0;
#X connect 2 0 10 0;
#X connect 2 0 11 0;
#X connect 2 0 15 0;
#X connect 2 0 16 0;
#X connect 2 0 17 0;
#X restore 173 110 pd slicing;
#X obj 98 211 s rev;
#X obj 53 191 s niveau;
#X obj 166 470 r rev;
#X obj 5 247 r son;
#X obj 25 150 route son vol rev;
#N canvas 0 25 805 911 sync 0;
#X obj 230 141 inlet;
#X obj 231 181 route sync;
#X obj 18 107 abl_link~;
#X msg 18 76 connect \$1;
#X floatatom 18 149 5 0 0 0 - - -;
#X floatatom 58 154 5 0 0 0 - - -;
#X obj 18 16 loadbang;
#X obj 19 50 tgl 15 0 empty empty empty 17 7 0 10 -262144 -1 -1 1 1
;
#X obj 54 205 select 0;
#X obj 139 351 int;
#X obj 180 300 unpack;
#X obj 204 496 spigot;
#X obj 57 235 bng 15 250 50 0 empty empty empty 17 7 0 10 -262144 -1
-1;
#X obj 173 344 int;
#X obj 177 407 pack f f;
#X msg 275 333 1;
#X msg 47 313 0;
#X obj 245 260 t l b;
#X obj 58 260 t b b b;
#X obj 205 558 s son;
#X connect 0 0 1 0;
#X connect 1 0 17 0;
#X connect 2 0 4 0;
#X connect 2 3 5 0;
#X connect 3 0 2 0;
#X connect 4 0 8 0;
#X connect 6 0 7 0;
#X connect 7 0 3 0;
#X connect 8 0 12 0;
#X connect 9 0 14 0;
#X connect 10 0 9 1;
#X connect 10 1 13 1;
#X connect 11 0 19 0;
#X connect 12 0 18 0;
#X connect 13 0 14 1;
#X connect 14 0 11 0;
#X connect 15 0 11 1;
#X connect 16 0 11 1;
#X connect 17 0 10 0;
#X connect 17 1 15 0;
#X connect 18 0 16 0;
#X connect 18 1 9 0;
#X connect 18 2 13 0;
#X restore 5 212 pd sync;
#X msg 125 266 5 \$1;
#X floatatom 146 234 5 0 0 0 - - -;
#N canvas 0 57 1248 995 fadesound 0;
#X obj 156 5 inlet;
#X msg -10 704 0;
#X obj -49 591 print message;
#X obj -60 756 readsf~ 1 1e+06, f 20;
#X obj 319 626 del;
#N canvas 182 182 963 555 diff 0;
#X obj 128 26 inlet;
#X obj 132 88 route 1 2 3 4 5 6 7 8 9 10 11 12 13 14 15 16 17 18 19
20;
#X obj 294 360 outlet;
#X obj 86 356 outlet;
#N canvas 1188 145 450 597 slice01 0;
#X obj 202 35 inlet;
#X obj 142 117 tabread slices01;
#X floatatom 148 166 5 0 0 0 - - -;
#X obj 204 182 + 1;
#X obj 200 216 tabread slices01;
#X floatatom 242 262 5 0 0 0 - - -;
#X obj 181 323 - 0;
#X obj 186 350 * -1;
#X obj 235 77 t i i;
#X obj 35 208 s sortie01;
#X obj 209 462 s sortie02;
#X connect 0 0 8 0;
#X connect 1 0 2 0;
#X connect 1 0 9 0;
#X connect 2 0 6 0;
#X connect 3 0 4 0;
#X connect 4 0 5 0;
#X connect 4 0 6 1;
#X connect 6 0 7 0;
#X connect 7 0 10 0;
#X connect 8 0 1 0;
#X connect 8 1 3 0;
#X restore 132 144 pd slice01;
#X obj 109 300 r sortie01;
#X obj 285 304 r sortie02;
#N canvas 1188 145 450 597 slice02 0;
#X obj 202 35 inlet;
#X floatatom 148 166 5 0 0 0 - - -;
#X obj 204 182 + 1;
#X floatatom 242 262 5 0 0 0 - - -;
#X obj 181 323 - 0;
#X obj 186 350 * -1;
#X obj 235 77 t i i;
#X obj 35 208 s sortie01;
#X obj 209 462 s sortie02;
#X obj 142 117 tabread slices02;
#X obj 200 216 tabread slices02;
#X connect 0 0 6 0;
#X connect 1 0 4 0;
#X connect 2 0 10 0;
#X connect 4 0 5 0;
#X connect 5 0 8 0;
#X connect 6 0 9 0;
#X connect 6 1 2 0;
#X connect 9 0 1 0;
#X connect 9 0 7 0;
#X connect 10 0 3 0;
#X connect 10 0 4 1;
#X restore 149 195 pd slice02;
#N canvas 1188 145 450 597 slice03 0;
#X obj 202 35 inlet;
#X floatatom 148 166 5 0 0 0 - - -;
#X obj 204 182 + 1;
#X floatatom 242 262 5 0 0 0 - - -;
#X obj 181 323 - 0;
#X obj 186 350 * -1;
#X obj 235 77 t i i;
#X obj 35 208 s sortie01;
#X obj 209 462 s sortie02;
#X obj 142 117 tabread slices03;
#X obj 200 216 tabread slices03;
#X connect 0 0 6 0;
#X connect 1 0 4 0;
#X connect 2 0 10 0;
#X connect 4 0 5 0;
#X connect 5 0 8 0;
#X connect 6 0 9 0;
#X connect 6 1 2 0;
#X connect 9 0 1 0;
#X connect 9 0 7 0;
#X connect 10 0 3 0;
#X connect 10 0 4 1;
#X restore 161 247 pd slice03;
#N canvas 1188 145 450 597 slice04 0;
#X obj 202 35 inlet;
#X floatatom 148 166 5 0 0 0 - - -;
#X obj 204 182 + 1;
#X floatatom 242 262 5 0 0 0 - - -;
#X obj 181 323 - 0;
#X obj 186 350 * -1;
#X obj 235 77 t i i;
#X obj 35 208 s sortie01;
#X obj 209 462 s sortie02;
#X obj 142 117 tabread slices04;
#X obj 200 216 tabread slices04;
#X connect 0 0 6 0;
#X connect 1 0 4 0;
#X connect 2 0 10 0;
#X connect 4 0 5 0;
#X connect 5 0 8 0;
#X connect 6 0 9 0;
#X connect 6 1 2 0;
#X connect 9 0 1 0;
#X connect 9 0 7 0;
#X connect 10 0 3 0;
#X connect 10 0 4 1;
#X restore 182 170 pd slice04;
#N canvas 1188 145 450 597 slice05 0;
#X obj 202 35 inlet;
#X floatatom 148 166 5 0 0 0 - - -;
#X obj 204 182 + 1;
#X floatatom 242 262 5 0 0 0 - - -;
#X obj 181 323 - 0;
#X obj 186 350 * -1;
#X obj 235 77 t i i;
#X obj 35 208 s sortie01;
#X obj 209 462 s sortie02;
#X obj 142 117 tabread slices05;
#X obj 200 216 tabread slices05;
#X connect 0 0 6 0;
#X connect 1 0 4 0;
#X connect 2 0 10 0;
#X connect 4 0 5 0;
#X connect 5 0 8 0;
#X connect 6 0 9 0;
#X connect 6 1 2 0;
#X connect 9 0 1 0;
#X connect 9 0 7 0;
#X connect 10 0 3 0;
#X connect 10 0 4 1;
#X restore 199 221 pd slice05;
#N canvas 1188 145 450 597 slice06 0;
#X obj 202 35 inlet;
#X floatatom 148 166 5 0 0 0 - - -;
#X obj 204 182 + 1;
#X floatatom 242 262 5 0 0 0 - - -;
#X obj 181 323 - 0;
#X obj 186 350 * -1;
#X obj 235 77 t i i;
#X obj 35 208 s sortie01;
#X obj 209 462 s sortie02;
#X obj 142 117 tabread slices06;
#X obj 200 216 tabread slices06;
#X connect 0 0 6 0;
#X connect 1 0 4 0;
#X connect 2 0 10 0;
#X connect 4 0 5 0;
#X connect 5 0 8 0;
#X connect 6 0 9 0;
#X connect 6 1 2 0;
#X connect 9 0 1 0;
#X connect 9 0 7 0;
#X connect 10 0 3 0;
#X connect 10 0 4 1;
#X restore 211 273 pd slice06;
#X connect 0 0 1 0;
#X connect 1 0 4 0;
#X connect 1 1 7 0;
#X connect 1 2 8 0;
#X connect 1 3 9 0;
#X connect 1 4 10 0;
#X connect 1 5 11 0;
#X connect 5 0 3 0;
#X connect 6 0 2 0;
#X restore 392 369 pd diff;
#X obj 313 454 * 44.1;
#X obj 146 169 spigot;
#X obj 157 64 t b l;
#X msg 180 132 0;
#X msg 366 716 \; gate 1;
#X obj 219 145 r gate;
#X msg -77 547 open ./sounds/son\$1.wav \$2 \, 1;
#X obj 488 915 outlet~;
#X obj 641 650 line~;
#X obj 490 797 *~;
#X msg 649 616 1;
#X obj 651 592 loadbang;
#X obj 619 495 del;
#X msg 625 538 0 50;
#X obj 597 420 - 50;
#X msg 179 292 \; vol 1;
#X obj 572 603 r vol;
#X obj 366 677 loadbang;
#X obj 156 476 pack f f;
#X obj 159 406 unpack f f;
#X obj 600 453 t b f;
#X obj 332 554 t b f;
#X obj 490 858 *~;
#X obj 145 218 t l l b b;
#X msg 275 248 \; fade bang;
#X msg 559 868 0 \, 1 \$1;
#X msg 558 844 0;
#X obj 560 895 line~;
#X msg 558 816 set \$1;
#X obj 559 765 r fade;
#X floatatom 557 790 5 0 0 0 - - -;
#X connect 0 0 8 0;
#X connect 1 0 3 0;
#X connect 3 0 15 0;
#X connect 4 0 1 0;
#X connect 4 0 10 0;
#X connect 5 0 6 0;
#X connect 5 1 20 0;
#X connect 5 1 27 0;
#X connect 6 0 24 1;
#X connect 7 0 29 0;
#X connect 8 0 9 0;
#X connect 8 1 7 0;
#X connect 9 0 7 1;
#X connect 11 0 7 1;
#X connect 12 0 2 0;
#X connect 12 0 3 0;
#X connect 14 0 15 1;
#X connect 15 0 28 0;
#X connect 16 0 14 0;
#X connect 17 0 16 0;
#X connect 18 0 19 0;
#X connect 19 0 14 0;
#X connect 20 0 26 0;
#X connect 22 0 14 0;
#X connect 23 0 10 0;
#X connect 24 0 12 0;
#X connect 25 0 24 0;
#X connect 26 0 18 0;
#X connect 26 1 18 1;
#X connect 27 0 4 0;
#X connect 27 1 4 1;
#X connect 28 0 13 0;
#X connect 29 0 25 0;
#X connect 29 1 5 0;
#X connect 29 2 21 0;
#X connect 29 3 30 0;
#X connect 31 0 33 0;
#X connect 32 0 31 0;
#X connect 33 0 28 1;
#X connect 34 0 32 0;
#X connect 35 0 36 0;
#X connect 36 0 34 0;
#X restore 23 331 pd fadesound;
#X connect 0 0 1 0;
#X connect 2 0 7 0;
#X connect 3 0 8 0;
#X connect 4 0 10 0;
#X connect 4 0 18 1;
#X connect 5 0 7 0;
#X connect 6 0 5 0;
#X connect 7 0 3 0;
#X connect 8 0 4 0;
#X connect 9 0 2 0;
#X connect 14 0 18 0;
#X connect 15 0 14 1;
#X connect 16 0 17 0;
#X connect 17 0 15 0;
#X connect 18 0 13 1;
#X connect 18 0 13 0;
#X connect 19 0 23 0;
#X connect 20 0 19 0;
#X connect 21 0 20 0;
#X connect 22 0 21 0;
#X connect 23 0 33 0;
#X connect 24 0 37 0;
#X connect 24 1 25 0;
#X connect 24 2 26 0;
#X connect 24 3 27 0;
#X connect 25 0 14 0;
#X connect 26 0 14 0;
#X connect 27 0 14 0;
#X connect 31 0 15 0;
#X connect 32 0 24 0;
#X connect 33 0 24 0;
#X connect 33 0 34 0;
#X connect 33 1 30 0;
#X connect 33 2 29 0;
#X connect 35 0 24 0;
#X connect 36 0 35 0;
#X connect 37 0 14 0;
