#N canvas 265 179 407 467 10;
#X obj 16 405 dac~;
#X obj 12 280 catch~ rain;
#X obj 12 175 throw~ rain;
#X obj 12 218 throw~ rain;
#X obj 12 260 throw~ rain;
#X obj 12 195 cpraingen 60 12 0.2;
#X obj 12 322 hip~ 900;
#X obj 12 153 cpraingen 50 12 0.15;
#X obj 12 237 cpraingen 70 12 0.4;
#X obj 12 301 *~ 0.2;
#X obj 6 9 print;
#X obj 48 -56 oscparse;
#X obj 50 -26 route list;
#X obj 49 -81 netreceive -u -b 3002;
#X obj 49 1 route triplet;
#X obj 54 26 unpack f f f;
#X obj 14 73 * 100;
#X obj 90 74 * 24;
#X obj 139 93 * 0.15;
#X connect 1 0 9 0;
#X connect 5 0 3 0;
#X connect 6 0 0 0;
#X connect 6 0 0 1;
#X connect 7 0 2 0;
#X connect 8 0 4 0;
#X connect 9 0 6 0;
#X connect 11 0 12 0;
#X connect 12 0 14 0;
#X connect 13 0 11 0;
#X connect 14 0 10 0;
#X connect 14 0 15 0;
#X connect 15 0 16 0;
#X connect 15 1 17 0;
#X connect 15 2 18 0;
#X connect 16 0 7 0;
#X connect 17 0 7 1;
#X connect 18 0 7 2;
